<?xml version="1.0" encoding="UTF-8"?><svg id="Ebene_1" xmlns="http://www.w3.org/2000/svg" viewBox="0 0 471 484"><defs><style>.cls-1{fill:#5cb85c;}</style></defs><path class="cls-1" d="m54.87,17.5c-25.33,0-45.87,20.54-45.87,45.87v104.13h0v254.13c0,25.33,20.54,45.87,45.87,45.87h88.26c25.33,0,45.87-20.54,45.87-45.87v-212.4c0-8.41,6.82-15.23,15.23-15.23h8.58c15.63,0,30.76-5.5,42.75-15.53l9.85-8.25c7.48-6.26,18.84-3.97,23.31,4.7l2.7,5.25c3.26,6.33,1.7,14.08-3.76,18.65l-26.62,23.06c-15.27,13.22-24.04,32.43-24.04,52.62v43h72c82.84,0,150-67.16,150-150h0c0-82.84-67.16-150-150-150H54.87Zm170.63,146.5c-20.16,0-36.5-16.34-36.5-36.5s16.34-36.5,36.5-36.5,36.5,16.34,36.5,36.5-16.34,36.5-36.5,36.5Z"/></svg>